<svg width="289" height="96" viewBox="0 0 289 96" fill="none" xmlns="http://www.w3.org/2000/svg">
<rect width="289" height="96" fill="white"/>
<path d="M40.912 33.84V42.928H55.568V51.376H40.912V61.232H57.488V70H29.968V25.072H57.488V33.84H40.912ZM81.425 25.072C86.161 25.072 90.2997 26.0107 93.841 27.888C97.3823 29.7653 100.113 32.4107 102.033 35.824C103.996 39.1947 104.977 43.0987 104.977 47.536C104.977 51.9307 103.996 55.8347 102.033 59.248C100.113 62.6613 97.361 65.3067 93.777 67.184C90.2357 69.0613 86.1183 70 81.425 70H64.593V25.072H81.425ZM80.721 60.528C84.8597 60.528 88.081 59.3973 90.385 57.136C92.689 54.8747 93.841 51.6747 93.841 47.536C93.841 43.3973 92.689 40.176 90.385 37.872C88.081 35.568 84.8597 34.416 80.721 34.416H75.537V60.528H80.721ZM121.845 25.072V51.952C121.845 54.64 122.506 56.7093 123.829 58.16C125.152 59.6107 127.093 60.336 129.653 60.336C132.213 60.336 134.176 59.6107 135.541 58.16C136.906 56.7093 137.589 54.64 137.589 51.952V25.072H148.533V51.888C148.533 55.8987 147.68 59.2907 145.973 62.064C144.266 64.8373 141.962 66.928 139.061 68.336C136.202 69.744 133.002 70.448 129.461 70.448C125.92 70.448 122.741 69.7653 119.925 68.4C117.152 66.992 114.954 64.9013 113.333 62.128C111.712 59.312 110.901 55.8987 110.901 51.888V25.072H121.845ZM167.162 39.344C168.186 37.68 169.658 36.336 171.578 35.312C173.498 34.288 175.695 33.776 178.17 33.776C181.114 33.776 183.781 34.5227 186.17 36.016C188.559 37.5093 190.437 39.6427 191.802 42.416C193.21 45.1893 193.914 48.4107 193.914 52.08C193.914 55.7493 193.21 58.992 191.802 61.808C190.437 64.5813 188.559 66.736 186.17 68.272C183.781 69.7653 181.114 70.512 178.17 70.512C175.653 70.512 173.455 70.0213 171.578 69.04C169.701 68.016 168.229 66.672 167.162 65.008V70H156.218V22.64H167.162V39.344ZM182.778 52.08C182.778 49.3493 182.01 47.216 180.474 45.68C178.981 44.1013 177.125 43.312 174.906 43.312C172.73 43.312 170.874 44.1013 169.338 45.68C167.845 47.2587 167.098 49.4133 167.098 52.144C167.098 54.8747 167.845 57.0293 169.338 58.608C170.874 60.1867 172.73 60.976 174.906 60.976C177.082 60.976 178.938 60.1867 180.474 58.608C182.01 56.9867 182.778 54.8107 182.778 52.08ZM215.912 70.512C212.413 70.512 209.256 69.7653 206.44 68.272C203.666 66.7787 201.469 64.6453 199.848 61.872C198.269 59.0987 197.48 55.856 197.48 52.144C197.48 48.4747 198.29 45.2533 199.911 42.48C201.533 39.664 203.752 37.5093 206.568 36.016C209.384 34.5227 212.541 33.776 216.04 33.776C219.538 33.776 222.696 34.5227 225.512 36.016C228.328 37.5093 230.546 39.664 232.168 42.48C233.789 45.2533 234.6 48.4747 234.6 52.144C234.6 55.8133 233.768 59.056 232.104 61.872C230.482 64.6453 228.242 66.7787 225.384 68.272C222.568 69.7653 219.41 70.512 215.912 70.512ZM215.912 61.04C218.002 61.04 219.773 60.272 221.224 58.736C222.717 57.2 223.464 55.0027 223.464 52.144C223.464 49.2853 222.738 47.088 221.288 45.552C219.88 44.016 218.13 43.248 216.04 43.248C213.906 43.248 212.136 44.016 210.728 45.552C209.32 47.0453 208.616 49.2427 208.616 52.144C208.616 55.0027 209.298 57.2 210.664 58.736C212.072 60.272 213.821 61.04 215.912 61.04ZM260.31 60.72V70H254.742C250.774 70 247.68 69.04 245.462 67.12C243.243 65.1573 242.134 61.9787 242.134 57.584V43.376H237.782V34.288H242.134V25.584H253.078V34.288H260.246V43.376H253.078V57.712C253.078 58.7787 253.334 59.5467 253.846 60.016C254.358 60.4853 255.211 60.72 256.406 60.72H260.31Z" fill="url(#paint0_linear_40_113)"/>
<defs>
<linearGradient id="paint0_linear_40_113" x1="32.4727" y1="47.3766" x2="263" y2="47.3766" gradientUnits="userSpaceOnUse">
<stop stop-color="#5178FB"/>
<stop offset="1" stop-color="#47BAD8"/>
</linearGradient>
</defs>
</svg>
