<svg width="60" height="60" viewBox="0 0 60 60" fill="none" xmlns="http://www.w3.org/2000/svg">
<rect width="60" height="60" rx="30" fill="#F2F2F3"/>
<path d="M30.5032 24.08L24.9972 14.5365C25.18 14.3537 25.3904 14.2338 25.6007 14.1532C23.977 14.678 23.232 16.4688 23.232 16.4688L13.1735 33.8988C13.0319 34.4452 12.9926 34.9386 13.0103 35.373H23.9888L30.5032 24.08Z" fill="#34A853"/>
<path d="M30.5029 24.08L37.0173 35.373H47.9958C48.0135 34.9386 47.9742 34.4452 47.8326 33.8988L37.7741 16.4688C37.7741 16.4688 37.0271 14.678 35.4054 14.1532C35.6138 14.2338 35.8261 14.3537 36.0089 14.5365L30.5029 24.08Z" fill="#FBBC05"/>
<path d="M30.503 24.08L36.009 14.5364C35.8262 14.3536 35.6139 14.2337 35.4055 14.1531C35.1657 14.0765 34.9082 14.0254 34.6291 14.0116H34.3381H26.6679H26.377C26.0998 14.0234 25.8404 14.0745 25.6005 14.1531C25.3922 14.2337 25.1799 14.3536 24.9971 14.5364L30.503 24.08Z" fill="#188038"/>
<path d="M23.9907 35.373L18.5477 44.8085C18.5477 44.8085 18.3668 44.722 18.1211 44.5431C18.8936 45.1269 19.6445 45.2507 19.6445 45.2507H41.0216C42.201 45.2507 42.4468 44.8085 42.4468 44.8085C42.4507 44.8065 42.4527 44.8045 42.4566 44.8026L37.0175 35.373H23.9907Z" fill="#4285F4"/>
<path d="M23.9907 35.373H13.0122C13.0672 36.6547 13.6334 37.4036 13.6334 37.4036L14.0462 38.1074C14.0757 38.1486 14.0933 38.1722 14.0933 38.1722L14.9917 39.7212L17.0085 43.1691C17.0675 43.3086 17.1363 43.4364 17.209 43.5583C17.2365 43.5995 17.2621 43.6448 17.2916 43.6841C17.2994 43.6959 17.3073 43.7077 17.3151 43.7195C17.5648 44.0654 17.8439 44.3328 18.1231 44.5431C18.3688 44.7239 18.5496 44.8085 18.5496 44.8085L23.9907 35.373Z" fill="#1967D2"/>
<path d="M37.0176 35.373H47.9961C47.941 36.6547 47.3749 37.4036 47.3749 37.4036L46.9621 38.1074C46.9326 38.1486 46.9149 38.1722 46.9149 38.1722L46.0166 39.7212L43.9998 43.1691C43.9408 43.3086 43.872 43.4364 43.7993 43.5583C43.7718 43.5995 43.7462 43.6448 43.7167 43.6841C43.7088 43.6959 43.701 43.7077 43.6931 43.7195C43.4435 44.0654 43.1643 44.3328 42.8852 44.5431C42.6395 44.7239 42.4587 44.8085 42.4587 44.8085L37.0176 35.373Z" fill="#EA4335"/>
</svg>
